<svg width="203" height="259" viewBox="0 0 203 259" fill="none" xmlns="http://www.w3.org/2000/svg">
<path d="M5.14868 10.6515H44.6392C55.4087 10.6515 64.1392 19.3819 64.1392 30.1515V252.759C64.1392 256.072 61.4529 258.759 58.1392 258.759H5.14868V10.6515Z" fill="#FFB703"/>
<path d="M79.0357 86.0534L98.5252 12.5029C111.698 15.2294 142.261 27.6874 159.131 55.7077C180.218 90.733 167.09 153.793 149.435 194.739C135.312 227.497 80.3724 250.954 54.5966 258.759L63.1526 243.572C88.2269 220.755 138.017 170.742 136.584 153.23C134.792 131.34 94.4817 112.636 84.4041 107.96C76.342 104.22 77.466 91.7971 79.0357 86.0534Z" fill="#FB8500"/>
</svg>
